<?xml version="1.0" encoding="UTF-8" standalone="no"?>
<!-- Created with Inkscape (http://www.inkscape.org/) -->

<svg
   xmlns:dc="http://purl.org/dc/elements/1.1/"
   xmlns:cc="http://creativecommons.org/ns#"
   xmlns:rdf="http://www.w3.org/1999/02/22-rdf-syntax-ns#"
   xmlns:svg="http://www.w3.org/2000/svg"
   xmlns="http://www.w3.org/2000/svg"
   xmlns:sodipodi="http://sodipodi.sourceforge.net/DTD/sodipodi-0.dtd"
   xmlns:inkscape="http://www.inkscape.org/namespaces/inkscape"
   width="137.84244mm"
   height="133.49652mm"
   viewBox="0 0 488.41809 473.01917"
   id="svg2"
   version="1.1"
   inkscape:version="0.91 r13725"
   sodipodi:docname="500 Error.svg">
  <defs
     id="defs4" />
  <sodipodi:namedview
     id="base"
     pagecolor="#ffffff"
     bordercolor="#666666"
     borderopacity="1.0"
     inkscape:pageopacity="0.0"
     inkscape:pageshadow="2"
     inkscape:zoom="0.98994949"
     inkscape:cx="224.35761"
     inkscape:cy="226.02999"
     inkscape:document-units="px"
     inkscape:current-layer="layer1"
     showgrid="false"
     inkscape:window-width="1366"
     inkscape:window-height="706"
     inkscape:window-x="-8"
     inkscape:window-y="-8"
     inkscape:window-maximized="1"
     fit-margin-top="0"
     fit-margin-left="0"
     fit-margin-right="0"
     fit-margin-bottom="0" />
  <metadata
     id="metadata7">
    <rdf:RDF>
      <cc:Work
         rdf:about="">
        <dc:format>image/svg+xml</dc:format>
        <dc:type
           rdf:resource="http://purl.org/dc/dcmitype/StillImage" />
        <dc:title></dc:title>
      </cc:Work>
    </rdf:RDF>
  </metadata>
  <g
     inkscape:label="Layer 1"
     inkscape:groupmode="layer"
     id="layer1"
     transform="translate(-106.67762,-197.66563)">
    <path
       style="opacity:1;fill:#000000;fill-opacity:1;fill-rule:nonzero;stroke:#000000;stroke-width:0;stroke-linecap:round;stroke-miterlimit:9;stroke-dasharray:none;stroke-opacity:1"
       d="m 298.52964,223.51566 c -43.93878,-8.44867 -81.78355,23.84976 -109.17694,54.16226 -55.99402,63.12805 -90.759647,153.33099 -66.07991,237.10533 20.91911,77.80382 91.18363,144.96716 174.22636,146.56981 C 390.42493,664.9677 478.21073,612.4982 534.86127,541.45338 580.86282,483.03584 601.84021,400.264 571.53051,329.93499 536.85521,246.69224 442.62815,196.83963 354.17506,207.9237 c -35.61692,3.79549 -69.96388,15.88822 -101.52068,32.56826 -24.31186,1.48705 16.2634,-19.0264 23.75893,-21.58624 81.63296,-36.78091 185.48151,-26.3539 252.19112,35.66917 63.02274,54.72242 83.90357,150.52716 51.13553,227.04423 -37.45558,94.44209 -127.1124,164.27737 -225.71989,184.84775 -64.48739,12.92698 -136.3735,-3.68008 -182.51862,-52.30349 -64.36749,-63.84729 -83.071514,-167.72337 -45.84108,-250.29183 23.83991,-57.84231 64.56152,-112.40503 122.27565,-139.46499 14.32577,-9.85112 53.89449,-8.90779 54.37302,0.33487 l -3.7794,-1.22577 0,0 z"
       id="path4168"
       inkscape:connector-curvature="0" />
    <path
       style="opacity:1;fill:#000000;fill-opacity:1;fill-rule:nonzero;stroke:#000000;stroke-width:0;stroke-linecap:round;stroke-miterlimit:9;stroke-dasharray:none;stroke-opacity:1"
       d="m 450.18299,366.90308 c 10.55507,-30.12904 38.29504,-61.47391 72.99242,-57.23951 35.81737,9.56905 44.57531,57.78005 26.81784,86.56624 -8.4113,22.52549 -45.26888,45.86399 -58.46393,41.93451 21.64795,-10.85473 44.80447,-22.86518 54.77032,-46.42652 13.16489,-25.56829 8.31616,-64.93641 -21.20023,-76.57616 -32.3435,-6.25013 -57.27598,23.94825 -70.40645,49.71818 -2.16856,6.46512 -7.67771,13.92283 -4.50997,2.02326 z"
       id="path4172"
       inkscape:connector-curvature="0" />
    <path
       style="opacity:1;fill:#000000;fill-opacity:1;fill-rule:nonzero;stroke:#000000;stroke-width:0;stroke-linecap:round;stroke-miterlimit:9;stroke-dasharray:none;stroke-opacity:1"
       d="m 212.73237,333.2137 c -23.50848,-15.12816 -58.7152,-5.16218 -66.48998,22.95225 -14.04908,31.53198 -2.013,75.84771 33.05914,87.13878 12.02464,6.86766 40.49389,-5.168 42.17344,3.2946 -35.86883,16.204 -83.17775,-9.54016 -86.22058,-49.57374 -5.16093,-31.38547 11.61291,-72.13233 46.77498,-75.61638 10.26876,-2.87466 38.79294,9.86536 32.33809,12.79974 l -1.16173,-0.70713 -0.47336,-0.28812 0,0 z"
       id="path4180"
       inkscape:connector-curvature="0" />
    <path
       style="opacity:1;fill:#000000;fill-opacity:1;fill-rule:nonzero;stroke:#000000;stroke-width:0;stroke-linecap:round;stroke-miterlimit:9;stroke-dasharray:none;stroke-opacity:1"
       d="m 211.99723,446.54977 c 27.52205,-2.64188 32.78136,-44.87074 31.29302,-55.69041 10.17509,19.72298 -1.92742,46.01862 -20.04415,55.6776 -2.52565,1.89562 -28.33381,4.84319 -11.24887,0.0128 z"
       id="path4194"
       inkscape:connector-curvature="0" />
    <path
       style="opacity:1;fill:#000000;fill-opacity:1;fill-rule:nonzero;stroke:#000000;stroke-width:0;stroke-linecap:round;stroke-miterlimit:9;stroke-dasharray:none;stroke-opacity:1"
       d="m 217.25389,333.03203 c 23.82517,17.6694 34.33176,49.81962 29.13704,78.55745 -5.89843,-24.20223 -3.88775,-53.3748 -25.403,-70.58941 -4.21573,-3.46048 -16.37151,-16.43217 -3.73404,-7.96804 z"
       id="path4204"
       inkscape:connector-curvature="0" />
    <path
       style="opacity:1;fill:#000000;fill-opacity:1;fill-rule:nonzero;stroke:#000000;stroke-width:0;stroke-linecap:round;stroke-miterlimit:9;stroke-dasharray:none;stroke-opacity:1"
       d="m 454.05422,369.21497 c -9.17147,24.48192 -0.0353,63.38203 30.49355,65.6653 12.38036,-4.80259 26.14838,-1.65614 6.42862,3.43312 -29.36947,5.3434 -47.46395,-28.60174 -44.04731,-53.98983 -2.39109,-4.21013 11.42176,-33.0207 7.12514,-15.10859 z"
       id="path4210"
       inkscape:connector-curvature="0" />
    <path
       style="opacity:1;fill:#000000;fill-opacity:1;fill-rule:nonzero;stroke:#000000;stroke-width:0;stroke-linecap:round;stroke-miterlimit:9;stroke-dasharray:none;stroke-opacity:1"
       d="m 200.6824,537.95871 c 82.80997,-10.3319 158.25083,-25.09377 241.91667,-26.07815 -6.505,12.80393 -36.50617,5.793 -52.01786,10.58561 -65.93778,6.57997 -131.60527,17.45207 -197.9626,18.70633 -10.32985,0.61727 21.84509,-7.49188 28.06379,-6.07093 z"
       id="path4214"
       inkscape:connector-curvature="0"
       sodipodi:nodetypes="cccccc" />
    <path
       style="opacity:1;fill:#000000;fill-opacity:1;fill-rule:nonzero;stroke:#000000;stroke-width:0;stroke-linecap:round;stroke-miterlimit:9;stroke-dasharray:none;stroke-opacity:1"
       d="m 469.80862,486.91986 c -27.27919,11.45354 -24.06178,55.49262 9.79025,47.31888 -16.56479,12.99912 -50.6472,-10.53528 -29.04956,-32.56136 -1.00174,-5.72572 27.88881,-24.64054 19.25931,-14.75752 z"
       id="path4216"
       inkscape:connector-curvature="0" />
    <path
       style="opacity:1;fill:#000000;fill-opacity:1;fill-rule:nonzero;stroke:#000000;stroke-width:0;stroke-linecap:round;stroke-miterlimit:9;stroke-dasharray:none;stroke-opacity:1"
       d="m 164.39675,505.88917 c 23.65346,7.61029 44.42892,38.22552 23.4815,59.40508 -4.96574,8.38895 14.23768,22.23443 -1.49394,11.37205 -6.81475,-18.83153 20.27,-45.15649 -8.86006,-57.47979 -1.19689,-1.65806 -29.82565,-20.45385 -13.1275,-13.29734 z"
       id="path4220"
       inkscape:connector-curvature="0" />
    <path
       style="opacity:1;fill:#000000;fill-opacity:1;fill-rule:nonzero;stroke:#000000;stroke-width:0;stroke-linecap:round;stroke-miterlimit:9;stroke-dasharray:none;stroke-opacity:1"
       d="m 344.56738,534.63698 c -1.75789,24.45239 28.85187,63.95528 45.30386,28.10211 6.62965,-9.56762 11.30599,-45.02672 16.74524,-38.08911 -4.34413,21.40717 -9.21823,50.50951 -33.57493,57.22518 -24.72526,0.14503 -30.75491,-32.92923 -31.80187,-52.64119 1.3578,-5.99801 3.4902,3.93755 3.3277,5.40301 z"
       id="path4226"
       inkscape:connector-curvature="0" />
    <path
       style="opacity:1;fill:#000000;fill-opacity:1;fill-rule:nonzero;stroke:#000000;stroke-width:0;stroke-linecap:round;stroke-miterlimit:9;stroke-dasharray:none;stroke-opacity:1"
       d="m 534.87577,331.87091 c -4.67116,23.00911 -44.32183,-1.41403 -17.13685,-9.05715 6.64349,-1.3351 16.11882,1.14911 17.13685,9.05715 z"
       id="path4256"
       inkscape:connector-curvature="0" />
    <path
       style="opacity:1;fill:#000000;fill-opacity:1;fill-rule:nonzero;stroke:#000000;stroke-width:0;stroke-linecap:round;stroke-miterlimit:9;stroke-dasharray:none;stroke-opacity:1"
       d="m 171.72593,354.85187 c -15.39598,28.38393 -26.03148,-24.2025 -0.75155,-3.46416 l 0.75155,3.46416 z"
       id="path4260"
       inkscape:connector-curvature="0" />
  </g>
</svg>
